<?xml version="1.0" encoding="utf-8"?>
<!-- Generator: Adobe Illustrator 27.5.0, SVG Export Plug-In . SVG Version: 6.00 Build 0)  -->
<svg version="1.1" xmlns="http://www.w3.org/2000/svg" xmlns:xlink="http://www.w3.org/1999/xlink" x="0px" y="0px"
	 viewBox="0 0 3710 3710" style="enable-background:new 0 0 3710 3710;" xml:space="preserve">
<g id="Background">
	<g>
		<g>
			<rect style="fill:#FFFFFF;" width="3710" height="3710"/>
		</g>
	</g>
</g>
<g id="Illustration">
	<g>
		<linearGradient id="SVGID_1_" gradientUnits="userSpaceOnUse" x1="3413.855" y1="3623.8191" x2="1364.3749" y2="1411.6816">
			<stop  offset="0" style="stop-color:#B37CFF"/>
			<stop  offset="1" style="stop-color:#F895E7"/>
		</linearGradient>
		<path style="opacity:0.3;fill:url(#SVGID_1_);" d="M3134.301,2361.003c-282.985,655.455-1029.976,936.989-1615.254,888.987
			c-159.805-13.106-481.335-39.477-732.39-274.74c-482.132-451.809-407.879-1396.214,53.659-1952.228
			c59.437-71.603,470.848-551.336,1111.956-544.915c469.384,4.702,798.841,267.449,838.901,300.183
			c50.607,41.351,162.227,139.614,262.823,295.503C3290.361,1440.075,3311.138,1951.408,3134.301,2361.003z"/>
		<g style="opacity:0.57;">
			<g>
				<g style="opacity:0.3;">
					
						<linearGradient id="SVGID_00000159433873865062508890000009704352910110304924_" gradientUnits="userSpaceOnUse" x1="-8554.207" y1="4789.6543" x2="-7619.1509" y2="4789.6543" gradientTransform="matrix(-0.9005 0.4349 -0.4349 -0.9005 -2572.3796 9256.0313)">
						<stop  offset="0" style="stop-color:#B37CFF"/>
						<stop  offset="1" style="stop-color:#F895E7"/>
					</linearGradient>
					<path style="fill:url(#SVGID_00000159433873865062508890000009704352910110304924_);" d="M2074.792,1319.501
						c7.997-3.468,17.289,0.208,20.753,8.203c6.733,15.533,14.239,31.006,22.314,45.988c4.086,7.58,1.332,17.015-6.136,21.225
						c-0.089,0.05-0.177,0.1-0.268,0.151c-7.67,4.134-17.24,1.265-21.375-6.408c-8.498-15.77-16.403-32.057-23.489-48.411
						c-3.242-7.476-0.235-16.091,6.712-20.007C2073.781,1319.972,2074.277,1319.721,2074.792,1319.501z M2162.162,1443.918
						c10.036,13.735,20.755,27.17,31.868,39.944c5.716,6.569,5.028,16.537-1.545,22.259c-6.618,5.719-16.542,5.025-22.262-1.55
						c-11.693-13.437-22.977-27.58-33.54-42.03c-5.141-7.035-3.604-16.909,3.432-22.05c0.511-0.373,1.038-0.712,1.575-1.015
						C2148.56,1435.604,2157.394,1437.394,2162.162,1443.918z M2252.729,1542.527c12.806,11.126,26.251,21.829,39.972,31.817
						c7.043,5.127,8.597,14.999,3.47,22.043c-5.131,7.032-14.994,8.594-22.043,3.469c-14.448-10.518-28.611-21.792-42.093-33.507
						c-6.578-5.715-7.276-15.68-1.565-22.26c1.219-1.401,2.63-2.537,4.16-3.4C2240.279,1537.504,2247.555,1538.03,2252.729,1542.527
						z M2363.077,1618.403c14.988,7.993,30.496,15.423,46.095,22.096c8.011,3.429,11.729,12.703,8.302,20.712
						c-3.435,8.007-12.705,11.719-20.712,8.302c-16.425-7.028-32.751-14.854-48.527-23.259c-7.688-4.099-10.6-13.657-6.501-21.345
						c1.467-2.751,3.631-4.891,6.16-6.317C2352.433,1616.034,2358.138,1615.775,2363.077,1618.403z M2487.577,1667.806
						c16.349,4.452,33.122,8.27,49.849,11.335c8.573,1.577,14.244,9.799,12.673,18.368c-1.572,8.577-9.798,14.247-18.368,12.668
						c-17.596-3.226-35.245-7.242-52.448-11.927c-8.407-2.287-13.367-10.959-11.075-19.369c1.153-4.237,3.927-7.598,7.474-9.598
						C2479.171,1667.316,2483.406,1666.67,2487.577,1667.806z M2619.905,1688.429c16.954,0.729,34.146,0.737,51.108,0.025
						c8.706-0.365,16.062,6.398,16.426,15.099c0.367,8.708-6.39,16.062-15.1,16.43c-17.848,0.752-35.949,0.739-53.79-0.027
						c-8.706-0.377-15.458-7.735-15.085-16.443c0.243-5.655,3.436-10.484,8.029-13.073
						C2613.969,1689.044,2616.852,1688.296,2619.905,1688.429z M3150.647,1440.237c7.036,5.139,8.575,15.011,3.434,22.048
						c-10.531,14.413-21.837,28.563-33.599,42.05c-5.728,6.569-15.695,7.25-22.261,1.52c-6.566-5.723-7.246-15.69-1.521-22.257
						c11.168-12.806,21.9-26.242,31.899-39.931c1.372-1.878,3.078-3.362,4.981-4.435
						C3138.804,1436.287,3145.489,1436.466,3150.647,1440.237z M2753.431,1679.212c16.682-3.058,33.434-6.877,49.791-11.358
						c8.407-2.299,17.087,2.65,19.387,11.053c2.302,8.409-2.663,17.045-11.054,19.384c-17.226,4.716-34.867,8.739-52.435,11.958
						c-8.57,1.57-16.792-4.103-18.364-12.677c-1.246-6.797,2.067-13.377,7.768-16.592
						C2750.009,1680.144,2751.66,1679.54,2753.431,1679.212z M3060.164,1543.787c5.706,6.583,4.993,16.55-1.592,22.258
						c-13.49,11.687-27.664,22.947-42.12,33.473c-7.029,5.165-16.913,3.571-22.043-3.471c-5.127-7.043-3.573-16.911,3.471-22.043
						c13.74-10.003,27.21-20.703,40.028-31.813c0.818-0.709,1.69-1.314,2.597-1.825
						C3046.905,1536.759,3055.169,1538.021,3060.164,1543.787z M2881.525,1640.393c15.568-6.71,31.05-14.179,46.02-22.208
						c7.679-4.123,17.241-1.237,21.363,6.444c4.064,7.579,1.306,16.994-6.151,21.198c-0.097,0.055-0.196,0.111-0.296,0.159
						c-15.756,8.458-32.056,16.324-48.439,23.389c-8.006,3.444-17.288-0.244-20.738-8.247c-3.223-7.473-0.212-16.069,6.725-19.979
						C2880.495,1640.875,2881.004,1640.623,2881.525,1640.393z"/>
					
						<linearGradient id="SVGID_00000103264910755326665240000001022744528627145656_" gradientUnits="userSpaceOnUse" x1="10154.5186" y1="3999.0894" x2="10207.0791" y2="3999.0894" gradientTransform="matrix(0.8711 -0.4911 -0.4911 -0.8711 -3711.9175 9852.6055)">
						<stop  offset="0" style="stop-color:#B37CFF"/>
						<stop  offset="1" style="stop-color:#F895E7"/>
					</linearGradient>
					<path style="fill:url(#SVGID_00000103264910755326665240000001022744528627145656_);" d="M3190.575,1344.224
						c-2.706,1.526-4.994,3.862-6.447,6.875c-3.535,7.327-7.286,14.699-11.138,21.922c-4.105,7.684-1.201,17.247,6.485,21.348
						c7.686,4.108,17.255,1.21,21.349-6.489c4.057-7.594,7.998-15.348,11.721-23.058c3.788-7.845,0.498-17.282-7.345-21.068
						C3200.362,1341.416,3194.924,1341.772,3190.575,1344.224z"/>
				</g>
				<g style="opacity:0.3;">
					
						<linearGradient id="SVGID_00000051377903470513070850000006081670296529992340_" gradientUnits="userSpaceOnUse" x1="10427.3408" y1="4400.7168" x2="10463.4092" y2="4400.7168" gradientTransform="matrix(0.8711 -0.4911 -0.4911 -0.8711 -3711.9175 9852.6055)">
						<stop  offset="0" style="stop-color:#B37CFF"/>
						<stop  offset="1" style="stop-color:#F895E7"/>
					</linearGradient>
					<path style="fill:url(#SVGID_00000051377903470513070850000006081670296529992340_);" d="M3213.956,863.758
						c-6.634,3.74-9.76,11.842-7.034,19.212c2.824,7.627,5.537,15.444,8.057,23.228c2.686,8.292,11.583,12.835,19.872,10.15
						c8.324-2.698,12.833-11.586,10.15-19.873c-2.656-8.195-5.511-16.427-8.483-24.459c-3.025-8.172-12.102-12.344-20.275-9.321
						C3215.441,862.992,3214.678,863.352,3213.956,863.758z"/>
					
						<linearGradient id="SVGID_00000019657484323652336000000002113385032738119102_" gradientUnits="userSpaceOnUse" x1="-8879.1064" y1="5403.4883" x2="-7918.5488" y2="5403.4883" gradientTransform="matrix(-0.9005 0.4349 -0.4349 -0.9005 -2572.3796 9256.0313)">
						<stop  offset="0" style="stop-color:#B37CFF"/>
						<stop  offset="1" style="stop-color:#F895E7"/>
					</linearGradient>
					<path style="fill:url(#SVGID_00000019657484323652336000000002113385032738119102_);" d="M2363.674,526.417
						c7.79-3.903,17.271-0.751,21.176,7.045c3.9,7.791,0.747,17.252-7.044,21.171c-14.833,7.429-29.58,15.607-44.003,24.39
						c-7.391,4.535-17.152,2.169-21.683-5.273c-4.532-7.442-2.172-17.149,5.269-21.684c6.249-3.806,12.537-7.492,18.861-11.058
						C2345.271,535.922,2354.497,531.01,2363.674,526.417z M2269.344,603.956c5.494,6.758,4.47,16.695-2.29,22.191
						c-12.978,10.557-25.653,21.771-37.667,33.341c-6.25,6.057-16.264,5.858-22.311-0.419c-6.041-6.273-5.853-16.263,0.423-22.305
						c12.648-12.183,25.989-23.991,39.649-35.095c0.708-0.576,1.453-1.081,2.221-1.514
						C2255.942,596.448,2264.421,597.902,2269.344,603.956z M2443.005,493.268c16.623-5.642,33.715-10.652,50.805-14.881
						c8.459-2.094,17.014,3.066,19.11,11.527c2.093,8.457-3.07,17-11.526,19.106c-16.231,4.014-32.459,8.769-48.243,14.13
						c-8.253,2.799-17.212-1.617-20.016-9.871c-2.477-7.299,0.698-15.152,7.178-18.805
						C2441.156,493.999,2442.055,493.591,2443.005,493.268z M2171.942,697.894c6.847,5.387,8.033,15.31,2.642,22.155
						c-10.33,13.126-20.22,26.852-29.398,40.792c-4.793,7.286-14.572,9.297-21.854,4.502c-7.278-4.79-9.293-14.571-4.503-21.849
						c9.666-14.682,20.082-29.137,30.958-42.958c1.316-1.669,2.897-3.006,4.642-3.99
						C2159.832,693.5,2166.767,693.821,2171.942,697.894z M2578.43,463.525c17.446-1.847,35.215-2.971,52.817-3.343
						c8.711-0.185,15.921,6.724,16.108,15.434c0.188,8.717-6.727,15.927-15.439,16.112c-16.72,0.356-33.598,1.423-50.164,3.178
						c-8.667,0.917-16.436-5.366-17.353-14.032c-0.683-6.457,2.631-12.414,7.946-15.411
						C2574.165,464.437,2576.223,463.758,2578.43,463.525z M2717.096,464.203c17.469,2.016,35.057,4.794,52.275,8.254
						c8.544,1.721,14.077,10.035,12.361,18.58c-1.721,8.555-10.038,14.085-18.579,12.356c-16.36-3.286-33.074-5.926-49.675-7.845
						c-8.657-0.999-14.864-8.827-13.865-17.484c0.605-5.215,3.687-9.542,7.936-11.938
						C2710.352,464.546,2713.659,463.806,2717.096,464.203z M2852.324,495.085c16.625,5.776,33.191,12.32,49.233,19.442
						c7.967,3.539,11.552,12.859,8.018,20.824c-3.541,7.975-12.862,11.552-20.823,8.017c-15.245-6.773-30.983-12.984-46.784-18.474
						c-8.231-2.86-12.586-11.852-9.725-20.08c1.313-3.783,3.917-6.743,7.149-8.565
						C2843.198,494.102,2847.873,493.54,2852.324,495.085z M2977.593,554.73c14.958,9.27,29.693,19.287,43.795,29.775
						c6.992,5.199,8.447,15.084,3.245,22.077c-5.191,6.981-15.083,8.44-22.076,3.241c-13.388-9.956-27.378-19.467-41.59-28.273
						c-7.406-4.59-9.689-14.313-5.098-21.719c1.451-2.339,3.41-4.166,5.65-5.428C2966.369,551.669,2972.522,551.589,2977.593,554.73
						z M3086.751,640.488c12.517,12.308,24.672,25.316,36.132,38.665c5.677,6.613,4.919,16.577-1.694,22.251
						c-6.593,5.656-16.57,4.919-22.247-1.693c-10.885-12.683-22.431-25.036-34.319-36.729c-6.212-6.106-6.295-16.099-0.185-22.309
						c1.064-1.082,2.244-1.98,3.503-2.69C3073.911,634.617,3081.621,635.442,3086.751,640.488z M3174.324,748.01
						c7.028,10.86,13.809,22.072,20.15,33.32c2.297,4.075,4.539,8.159,6.736,12.263c4.111,7.679,1.395,17.34-6.464,21.353
						c-7.679,4.117-17.242,1.223-21.358-6.461c-2.087-3.896-4.221-7.787-6.403-11.658c-6.03-10.695-12.47-21.348-19.152-31.675
						c-4.735-7.314-2.64-17.083,4.675-21.816c0.276-0.176,0.554-0.348,0.836-0.507
						C3160.551,738.765,3169.771,740.968,3174.324,748.01z"/>
					
						<linearGradient id="SVGID_00000116222982961421166870000017918528015074747551_" gradientUnits="userSpaceOnUse" x1="9451.7402" y1="5006.3809" x2="9503.6309" y2="5006.3809" gradientTransform="matrix(0.8711 -0.4911 -0.4911 -0.8711 -3711.9175 9852.6055)">
						<stop  offset="0" style="stop-color:#B37CFF"/>
						<stop  offset="1" style="stop-color:#F895E7"/>
					</linearGradient>
					<path style="fill:url(#SVGID_00000116222982961421166870000017918528015074747551_);" d="M2082.892,811.823
						c-2.733,1.541-5.032,3.905-6.485,6.946c-3.676,7.711-7.258,15.645-10.646,23.583c-3.423,8.015,0.299,17.286,8.313,20.707
						c8.015,3.419,17.283-0.291,20.706-8.313c3.22-7.54,6.624-15.076,10.112-22.398c3.751-7.86,0.416-17.278-7.45-21.029
						C2092.618,809.021,2087.213,809.386,2082.892,811.823z"/>
				</g>
				<g>
					
						<linearGradient id="SVGID_00000163040386655421211560000008548534896034682499_" gradientUnits="userSpaceOnUse" x1="-6362.7246" y1="7146.1523" x2="-5788.1943" y2="7901.5532" gradientTransform="matrix(-0.9652 0.2616 -0.2616 -0.9652 -1161.8815 10011.8379)">
						<stop  offset="0" style="stop-color:#B37CFF"/>
						<stop  offset="1" style="stop-color:#F895E7"/>
					</linearGradient>
					<path style="fill:url(#SVGID_00000163040386655421211560000008548534896034682499_);" d="M2172.981,1066.87
						c-0.534,3.101,0.955,6.199,3.711,7.716l78.629,43.279c2.47,41.842,11.631,83.59,27.798,123.58l-52.439,72.768
						c-1.839,2.553-1.856,5.991-0.042,8.562l62.052,87.974c1.813,2.572,5.059,3.71,8.079,2.833l86.147-24.981
						c32.246,28.649,68.5,51.289,107.087,67.656l14.384,88.591c0.505,3.105,2.924,5.549,6.024,6.084l106.085,18.331
						c3.099,0.536,6.2-0.954,7.716-3.712l43.278-78.629c41.842-2.469,83.591-11.629,123.581-27.798l72.768,52.439
						c2.553,1.84,5.991,1.858,8.561,0.044l87.977-62.052c2.571-1.814,3.707-5.059,2.831-8.08l-24.981-86.147
						c28.65-32.245,51.289-68.5,67.655-107.088l88.592-14.383c3.105-0.504,5.55-2.922,6.084-6.024l18.331-106.085
						c0.536-3.099-0.956-6.198-3.709-7.715l-78.631-43.279c-2.468-41.842-11.63-83.589-27.798-123.58l52.439-72.769
						c1.84-2.552,1.858-5.991,0.044-8.561l-62.053-87.976c-1.814-2.571-5.058-3.708-8.079-2.832l-86.147,24.98
						c-32.246-28.649-68.501-51.289-107.087-67.656l-14.384-88.591c-0.503-3.105-2.922-5.549-6.023-6.085l-106.085-18.33
						c-3.1-0.535-6.198,0.955-7.715,3.71l-43.278,78.63c-41.842,2.469-83.59,11.63-123.581,27.797l-72.769-52.439
						c-2.551-1.837-5.989-1.856-8.562-0.043l-87.974,62.053c-2.57,1.813-3.709,5.058-2.832,8.08l24.98,86.145
						c-28.649,32.246-51.287,68.501-67.655,107.088l-88.592,14.384c-3.105,0.504-5.549,2.924-6.084,6.023L2172.981,1066.87z"/>
					<path style="opacity:0.56;fill:#FFFFFF;" d="M2609.103,993.303c55.696-21.409,118.425,6.478,139.839,62.178
						c10.375,26.98,9.619,56.386-2.127,82.796c-11.74,26.408-33.063,46.672-60.05,57.039
						c-55.696,21.409-118.425-6.479-139.84-62.178c-19.479-50.672,1.847-107.162,47.799-133.067
						C2599.28,997.504,2604.082,995.235,2609.103,993.303z M2723.748,1128.02c9.005-20.252,9.583-42.794,1.63-63.485
						c-16.416-42.698-64.516-64.088-107.217-47.67c-42.72,16.407-64.088,64.516-47.672,107.22
						c16.416,42.698,64.516,64.088,107.217,47.671c3.872-1.49,7.585-3.243,11.134-5.244
						C2704.251,1157.824,2716.428,1144.478,2723.748,1128.02z"/>
					<path style="opacity:0.56;fill:#FFFFFF;" d="M2519.894,862.833c-7.892,4.449-15.606,9.321-23.111,14.614l0,0
						c-2.363,1.664-4.698,3.37-7.007,5.111c-11.379,8.587-22.056,18.066-31.869,28.289c-0.134,0.139-0.268,0.278-0.402,0.417
						c-0.377,0.397-0.755,0.794-1.13,1.196c-0.734,0.775-1.459,1.559-2.182,2.341c-1.901,2.062-2.167,5.049-0.862,7.37
						c0.318,0.563,0.73,1.088,1.231,1.549c2.563,2.362,6.552,2.185,8.915-0.37c12.148-13.195,25.802-25.166,40.58-35.584
						c73.387-51.781,165.046-58.965,242.563-27.19c43.119,17.669,81.861,47.397,110.652,88.22
						c5.051,7.157,9.702,14.518,13.943,22.047c28.554,50.663,38.731,109.118,28.693,167.197
						c-11.526,66.714-48.344,124.948-103.666,163.968c-114.266,80.578-272.665,53.173-353.215-61.03
						c-4.967-7.041-9.559-14.309-13.76-21.767c-18.212-32.318-29.151-68.263-31.904-105.291c-0.072-0.957-0.351-1.846-0.795-2.629
						c-1.162-2.062-3.447-3.384-5.966-3.195c-3.477,0.269-6.09,3.278-5.826,6.765c2.891,38.875,14.372,76.615,33.493,110.544
						c4.41,7.829,9.23,15.456,14.44,22.848c84.571,119.904,250.947,148.614,370.808,64.075
						c58.082-40.966,96.729-102.098,108.829-172.136c10.539-60.972-0.146-122.339-30.121-175.526
						c-4.455-7.903-9.338-15.628-14.635-23.142c-40.97-58.083-102.101-96.734-172.136-108.836
						C2634.47,822.147,2573.088,832.844,2519.894,862.833z"/>
				</g>
			</g>
			<g>
				<g style="opacity:0.3;">
					
						<linearGradient id="SVGID_00000114033632602755413620000007202086334204202670_" gradientUnits="userSpaceOnUse" x1="8675.4775" y1="4985.7144" x2="8701.1299" y2="4985.7144" gradientTransform="matrix(0.8711 -0.4911 -0.4911 -0.8711 -3711.9175 9852.6055)">
						<stop  offset="0" style="stop-color:#B37CFF"/>
						<stop  offset="1" style="stop-color:#F895E7"/>
					</linearGradient>
					<path style="fill:url(#SVGID_00000114033632602755413620000007202086334204202670_);" d="M1400.083,1222.459
						c-3.672,2.07-5.705,6.373-4.701,10.69c1.867,8.059,4.005,16.173,6.355,24.112c1.527,5.159,6.944,8.102,12.11,6.578
						c5.175-1.509,8.104-6.95,6.578-12.11c-2.239-7.565-4.277-15.298-6.061-22.989c-1.211-5.238-6.448-8.501-11.694-7.293
						C1401.74,1221.667,1400.875,1222.012,1400.083,1222.459z"/>
					
						<linearGradient id="SVGID_00000029745136067837351850000014710145171966542246_" gradientUnits="userSpaceOnUse" x1="-7579.8711" y1="5208.6426" x2="-7051.5864" y2="5208.6426" gradientTransform="matrix(-0.9005 0.4349 -0.4349 -0.9005 -2572.3796 9256.0313)">
						<stop  offset="0" style="stop-color:#B37CFF"/>
						<stop  offset="1" style="stop-color:#F895E7"/>
					</linearGradient>
					<path style="fill:url(#SVGID_00000029745136067837351850000014710145171966542246_);" d="M1424.54,1293.173
						c4.934-2.148,10.675,0.1,12.829,5.036c5.438,12.447,11.577,24.761,18.247,36.591c1.406,2.495,2.848,4.982,4.318,7.464
						c2.735,4.63,1.205,10.606-3.427,13.348c-4.482,2.417-10.606,1.205-13.355-3.429c-1.535-2.598-3.042-5.201-4.514-7.812
						c-6.991-12.401-13.429-25.312-19.128-38.367c-2.02-4.618-0.167-9.956,4.135-12.382
						C1423.932,1293.462,1424.232,1293.315,1424.54,1293.173z M1487.684,1383.243c10.049,13.048,20.994,25.593,32.535,37.276
						c3.783,3.832,3.744,9.993-0.086,13.78c-3.814,3.757-9.998,3.747-13.781-0.085c-12.097-12.244-23.574-25.394-34.108-39.078
						c-3.284-4.266-2.489-10.384,1.775-13.673c0.373-0.286,0.77-0.543,1.172-0.769
						C1479.344,1378.352,1484.69,1379.358,1487.684,1383.243z M1557.129,1453.492c12.919,10.174,26.613,19.639,40.71,28.145
						c4.604,2.779,6.087,8.771,3.307,13.375c-2.792,4.621-8.764,6.099-13.378,3.313c-14.782-8.915-29.147-18.854-42.695-29.516
						c-4.227-3.33-4.962-9.46-1.631-13.687c0.815-1.027,1.792-1.851,2.869-2.459
						C1549.648,1450.783,1553.931,1450.979,1557.129,1453.492z M1641.713,1504.534c15.043,6.705,30.643,12.538,46.345,17.32
						c5.153,1.574,8.053,7.018,6.481,12.165c-1.568,5.134-7.01,8.048-12.159,6.483c-16.476-5.023-32.823-11.134-48.603-18.166
						c-4.916-2.189-7.124-7.957-4.935-12.873c0.89-1.977,2.351-3.521,4.109-4.512
						C1635.55,1503.485,1638.78,1503.226,1641.713,1504.534z M1736.195,1533.378c16.214,2.844,32.751,4.708,49.165,5.549
						c5.37,0.272,9.505,4.855,9.231,10.231c-0.274,5.376-4.849,9.518-10.232,9.232c-17.2-0.878-34.537-2.837-51.53-5.81
						c-5.3-0.934-8.845-5.982-7.916-11.279c0.525-2.994,2.364-5.429,4.818-6.813
						C1731.625,1533.421,1733.887,1532.976,1736.195,1533.378z M1834.816,1538.413c16.402-1.185,32.88-3.406,48.986-6.608
						c5.274-1.05,10.409,2.38,11.456,7.656c1.046,5.277-2.368,10.392-7.658,11.462c-16.886,3.358-34.178,5.688-51.383,6.931
						c-5.367,0.382-10.033-3.651-10.42-9.016c-0.278-3.885,1.758-7.405,4.937-9.197
						C1831.949,1538.957,1833.329,1538.518,1834.816,1538.413z M1931.632,1519.183c15.561-5.157,31.006-11.362,45.905-18.45
						c4.862-2.305,10.675-0.239,12.984,4.621c2.313,4.857,0.216,10.595-4.616,12.991c-15.623,7.42-31.816,13.927-48.136,19.337
						c-5.11,1.691-10.625-1.078-12.319-6.186c-1.49-4.492,0.479-9.304,4.458-11.547
						C1930.445,1519.646,1931.021,1519.386,1931.632,1519.183z M2074.609,1449.023c3.424,4.154,2.83,10.291-1.325,13.715
						c-11.498,9.476-23.714,18.482-36.27,26.751c-1.902,1.268-3.813,2.499-5.734,3.724c-4.435,3.003-10.567,1.544-13.449-3.015
						c-2.885-4.546-1.535-10.561,3.009-13.45c1.806-1.139,3.601-2.304,5.415-3.513c12.02-7.912,23.673-16.503,34.639-25.536
						c0.45-0.374,0.929-0.698,1.418-0.974C2066.353,1444.446,2071.562,1445.322,2074.609,1449.023z"/>
				</g>
				<g style="opacity:0.3;">
					
						<linearGradient id="SVGID_00000163054360096312091190000017188913901745093558_" gradientUnits="userSpaceOnUse" x1="-7837.3618" y1="5715.4019" x2="-7253.1372" y2="5715.4019" gradientTransform="matrix(-0.9005 0.4349 -0.4349 -0.9005 -2572.3796 9256.0313)">
						<stop  offset="0" style="stop-color:#B37CFF"/>
						<stop  offset="1" style="stop-color:#F895E7"/>
					</linearGradient>
					<path style="fill:url(#SVGID_00000163054360096312091190000017188913901745093558_);" d="M1603.907,768.524
						c14.901-8.149,30.432-15.451,46.155-21.727c4.998-1.987,10.667,0.443,12.662,5.447c1.996,5.004-0.497,10.637-5.447,12.662
						c-14.996,5.975-29.807,12.948-44.023,20.722c-4.72,2.585-10.645,0.845-13.223-3.874c-2.56-4.685-0.874-10.552,3.76-13.164
						C1603.828,768.569,1603.87,768.545,1603.907,768.524z M1574.267,797.929c3.127,4.376,2.114,10.465-2.265,13.589
						c-13.172,9.414-25.907,19.718-37.85,30.634c-3.959,3.598-10.137,3.355-13.769-0.628c-3.632-3.972-3.351-10.128,0.619-13.764
						c12.517-11.438,25.863-22.239,39.669-32.098c0.292-0.208,0.585-0.396,0.892-0.569
						C1565.842,792.682,1571.34,793.832,1574.267,797.929z M1698.553,730.833c16.438-4.307,33.278-7.65,50.053-9.929
						c5.333-0.724,10.249,3.016,10.969,8.345c0.73,5.335-2.998,10.223-8.338,10.972c-16.004,2.171-32.063,5.359-47.749,9.461
						c-5.208,1.363-10.532-1.753-11.894-6.951c-1.146-4.379,0.873-8.838,4.636-10.96
						C1696.943,731.369,1697.72,731.051,1698.553,730.833z M1499.236,863.389c4.09,3.496,4.567,9.65,1.071,13.74
						c-10.522,12.302-20.389,25.37-29.328,38.853c-2.978,4.475-9.027,5.701-13.504,2.741c-4.486-2.977-5.715-9.024-2.739-13.51
						c9.37-14.143,19.721-27.855,30.759-40.753c0.766-0.89,1.654-1.61,2.62-2.154
						C1491.581,860.352,1496.04,860.656,1499.236,863.389z M1799.467,717.137c16.953-0.227,34.098,0.583,50.964,2.404
						c5.351,0.578,9.221,5.388,8.643,10.739c-0.577,5.352-5.378,9.227-10.738,8.644c-16.088-1.746-32.438-2.514-48.607-2.291
						c-5.379,0.071-9.803-4.23-9.874-9.619c-0.052-3.686,1.961-6.928,4.966-8.622
						C1796.193,717.618,1797.777,717.162,1799.467,717.137z M1900.736,728.052c16.547,3.848,33.008,8.737,48.922,14.524
						c5.055,1.837,7.664,7.423,5.824,12.481c-1.833,5.054-7.425,7.671-12.49,5.829c-15.176-5.516-30.88-10.176-46.672-13.848
						c-5.242-1.218-8.503-6.458-7.284-11.701c0.646-2.768,2.411-4.987,4.711-6.284
						C1895.795,727.899,1898.267,727.479,1900.736,728.052z M1996.485,762.902c15.156,7.7,29.97,16.402,44.026,25.849
						c4.47,3.007,5.653,9.059,2.65,13.527c-2.999,4.466-9.06,5.644-13.521,2.652c-13.403-9.016-27.528-17.31-41.981-24.643
						c-4.799-2.439-6.715-8.307-4.273-13.104c0.9-1.785,2.276-3.161,3.892-4.073
						C1990.022,761.564,1993.464,761.371,1996.485,762.902z"/>
					
						<linearGradient id="SVGID_00000053542508579779059700000002154473301466719663_" gradientUnits="userSpaceOnUse" x1="8826.3896" y1="5215.3906" x2="8865.6338" y2="5215.3906" gradientTransform="matrix(0.8711 -0.4911 -0.4911 -0.8711 -3711.9175 9852.6055)">
						<stop  offset="0" style="stop-color:#B37CFF"/>
						<stop  offset="1" style="stop-color:#F895E7"/>
					</linearGradient>
					<path style="fill:url(#SVGID_00000053542508579779059700000002154473301466719663_);" d="M1432.883,945.674
						c-1.637,0.923-3.025,2.328-3.928,4.137c-3.724,7.464-7.24,15.072-10.462,22.612c-2.11,4.948,0.186,10.678,5.136,12.793
						c4.946,2.095,10.669-0.192,12.793-5.137c3.068-7.192,6.427-14.45,9.976-21.574c2.403-4.817,0.441-10.67-4.374-13.068
						C1439.018,943.942,1435.606,944.139,1432.883,945.674z"/>
				</g>
				<g>
					
						<linearGradient id="SVGID_00000161623786176891271140000003179034809424359053_" gradientUnits="userSpaceOnUse" x1="-5292.5703" y1="7401.6279" x2="-5101.0586" y2="8093.1997" gradientTransform="matrix(-0.9652 0.2616 -0.2616 -0.9652 -1161.8815 10011.8379)">
						<stop  offset="0" style="stop-color:#B37CFF"/>
						<stop  offset="1" style="stop-color:#F895E7"/>
					</linearGradient>
					<path style="fill:url(#SVGID_00000161623786176891271140000003179034809424359053_);" d="M1489.497,1122.347
						c-0.357,2.075,0.639,4.148,2.483,5.163l52.615,28.961c1.653,27.999,7.783,55.934,18.602,82.693l-35.09,48.694
						c-1.231,1.708-1.242,4.008-0.029,5.729l41.523,58.868c1.212,1.722,3.385,2.482,5.405,1.896l57.646-16.717
						c21.578,19.171,45.837,34.321,71.658,45.273l9.625,59.281c0.337,2.078,1.957,3.713,4.031,4.072l70.987,12.266
						c2.074,0.359,4.148-0.638,5.163-2.484l28.959-52.614c27.999-1.652,55.936-7.782,82.696-18.602l48.693,35.09
						c1.708,1.231,4.009,1.243,5.729,0.029l58.87-41.523c1.721-1.214,2.48-3.385,1.895-5.406l-16.716-57.646
						c19.171-21.578,34.321-45.837,45.271-71.658l59.283-9.624c2.077-0.338,3.713-1.956,4.071-4.03l12.266-70.988
						c0.358-2.073-0.64-4.147-2.483-5.161l-52.616-28.961c-1.652-27.998-7.781-55.934-18.601-82.694l35.09-48.694
						c1.231-1.707,1.243-4.008,0.029-5.729l-41.523-58.87c-1.214-1.72-3.384-2.481-5.406-1.895l-57.645,16.716
						c-21.578-19.171-45.838-34.32-71.659-45.272l-9.625-59.281c-0.337-2.078-1.955-3.712-4.031-4.072l-70.987-12.266
						c-2.075-0.359-4.148,0.639-5.164,2.483l-28.959,52.615c-27.999,1.652-55.934,7.783-82.695,18.601l-48.693-35.09
						c-1.708-1.23-4.008-1.242-5.729-0.029l-58.868,41.523c-1.72,1.214-2.482,3.385-1.895,5.406l16.715,57.644
						c-19.171,21.578-34.319,45.838-45.271,71.658l-59.282,9.625c-2.078,0.337-3.713,1.957-4.071,4.03L1489.497,1122.347z"/>
					<path style="opacity:0.56;fill:#FFFFFF;" d="M1780.859,1071.91c18.381-7.073,38.413-6.558,56.405,1.445
						c17.988,7.994,31.789,22.522,38.852,40.903c14.585,37.934-4.391,80.587-42.353,95.259
						c-37.945,14.575-80.671-4.425-95.247-42.353c-7.068-18.378-6.555-38.408,1.443-56.399c6.503-14.624,17.322-26.479,31.016-34.2
						C1774.121,1074.791,1777.426,1073.233,1780.859,1071.91z M1857.928,1121.256c-5.198-13.523-15.347-24.209-28.586-30.096
						c-13.229-5.881-27.967-6.258-41.485-1.063l0,0c-13.513,5.215-24.203,15.349-30.09,28.588
						c-5.887,13.227-6.257,27.967-1.064,41.48c10.728,27.906,42.155,41.881,70.065,31.161c2.517-0.972,4.919-2.107,7.204-3.394
						C1856.998,1174.951,1867.687,1146.639,1857.928,1121.256z"/>
					<path style="opacity:0.56;fill:#FFFFFF;" d="M1718.765,981.106c-5.372,3.028-10.631,6.354-15.777,9.976
						c-10.214,7.2-19.706,15.447-28.233,24.536c-0.38,0.411-0.76,0.822-1.14,1.234c-2.936,3.184-3.345,7.796-1.33,11.38
						c0.49,0.87,1.127,1.68,1.9,2.391c3.958,3.646,10.114,3.366,13.765-0.572c7.88-8.561,16.72-16.308,26.267-23.035l0.004-0.002
						c0.523-0.371,1.054-0.735,1.578-1.096c22.74-15.715,48.536-25.167,75.312-28.026c14.534-1.551,29.366-1.151,44.162,1.268
						c0.12,0.019,0.24,0.039,0.361,0.058c0.37,0.065,0.735,0.121,1.101,0.188c43.188,7.466,80.887,31.298,106.148,67.114
						c3.273,4.633,6.28,9.395,9.028,14.269c18.484,32.798,25.071,70.642,18.577,108.246c-7.465,43.188-31.303,80.88-67.115,106.138
						c-35.801,25.23-79.326,35.063-122.513,27.608c-43.187-7.465-80.887-31.298-106.148-67.114
						c-3.218-4.555-6.188-9.261-8.907-14.086c-11.792-20.927-18.873-44.192-20.653-68.162c-0.111-1.478-0.542-2.852-1.228-4.06
						c-1.795-3.183-5.322-5.226-9.211-4.935c-5.366,0.414-9.396,5.068-8.996,10.447c1.995,26.82,9.916,52.857,23.101,76.264
						c3.047,5.405,6.368,10.667,9.963,15.764c28.267,40.075,70.442,66.738,118.766,75.087c48.315,8.344,96.989-2.578,137.06-30.882
						c40.073-28.261,66.738-70.431,75.082-118.757c7.274-42.064-0.099-84.403-20.78-121.097c-3.071-5.447-6.438-10.78-10.092-15.963
						C1904.089,957.712,1799.749,935.451,1718.765,981.106z"/>
				</g>
			</g>
		</g>
		<g>
			<g>
				
					<linearGradient id="SVGID_00000160164654106823705610000012739768435750734730_" gradientUnits="userSpaceOnUse" x1="1269.6401" y1="474.1088" x2="1097.4821" y2="2175.4409">
					<stop  offset="0" style="stop-color:#A737D5"/>
					<stop  offset="1" style="stop-color:#EF497A"/>
				</linearGradient>
				<path style="fill:url(#SVGID_00000160164654106823705610000012739768435750734730_);" d="M997.016,465.075
					c8.384-15.369,37.179-11.581,38.794,5.122c15.609,161.48,73.223,583.888,262.406,833.185
					c308.033,405.913,430.455,1005.157,105.493,1253.965C1403.708,2557.346,83.572,2139.667,997.016,465.075z"/>
				<path style="opacity:0.43;fill:#FFFFFF;" d="M981.471,689.504c-0.681,4.855-0.79,9.176-1.128,13.697l-0.646,13.428
					l-0.921,26.849c-0.484,17.899-0.729,35.799-0.913,53.699c-0.236,35.799,0.087,71.601,0.825,107.398
					c1.606,71.594,5.565,143.147,10.923,214.631c5.275,71.493,12.89,142.877,22.348,214.105l3.489,26.716l3.93,26.678
					c2.716,17.777,5.023,35.593,8.115,53.334l8.816,53.268l9.826,53.159c27.139,141.635,63.605,282.268,112.5,420.267
					c2.905,8.656,6.161,17.234,9.496,25.795l9.858,25.712l9.859,25.71c3.42,8.537,7.125,17.002,10.674,25.506
					c7.289,16.958,14.08,34.049,21.776,50.892l23.452,50.423c32.86,66.746,69.401,132.373,111.54,195.722
					c0.591,0.889,1.977,1.23,3.096,0.759c1.101-0.462,1.532-1.537,0.982-2.419l-0.013-0.021
					c-40.034-64.019-75.399-129.759-106.731-196.701l-22.707-50.438c-7.447-16.845-13.992-33.939-21.032-50.894
					c-3.425-8.502-7.006-16.965-10.302-25.5l-9.489-25.704l-9.487-25.701c-3.209-8.556-6.341-17.129-9.122-25.783l-17.445-51.747
					c-5.68-17.276-10.765-34.677-16.177-52.009c-2.633-8.681-5.413-17.333-7.925-26.036l-7.288-26.158l-7.289-26.156
					c-2.472-8.71-4.866-17.435-6.991-26.207c-18.468-69.93-33.433-140.409-47.547-210.974
					c-27.532-141.254-45.937-283.583-58.723-426.193c-6.242-71.32-10.722-142.744-13.521-214.213
					c-1.454-35.733-2.495-71.479-2.978-107.231c-0.175-17.875-0.29-35.752-0.166-53.626l0.38-26.805l0.375-13.391
					c0.221-4.411,0.329-9.039,0.764-13.089l0.042-0.4c0.106-0.995-0.821-1.87-2.073-1.954
					C982.695,687.82,981.609,688.535,981.471,689.504z"/>
			</g>
			<g>
				
					<linearGradient id="SVGID_00000080188823339033242490000015943561377995051943_" gradientUnits="userSpaceOnUse" x1="1250.8352" y1="2597.8064" x2="410.2966" y2="643.2997">
					<stop  offset="0" style="stop-color:#B37CFF"/>
					<stop  offset="1" style="stop-color:#F895E7"/>
				</linearGradient>
				<path style="fill:url(#SVGID_00000080188823339033242490000015943561377995051943_);" d="M1223.983,2737.927
					c0,0,142.857-264.12-11.629-658.188C1069.02,1714.112,696.428,850.89,715.345,468.347c0.839-16.945-25.515-22.997-34.382-7.853
					c-95.116,162.444-296.226,585.419-200.983,1130.968C602.799,2294.976,1223.983,2737.927,1223.983,2737.927z"/>
				<path style="opacity:0.45;fill:#FFFFFF;" d="M659.066,807.451c-15.086,38.103-24.605,77.705-31.512,117.507
					c-0.897,4.975-1.908,9.939-2.712,14.927l-2.064,14.997l-4.113,30.019l-2.654,30.137c-0.778,10.052-2.045,20.097-2.101,30.176
					c-3.604,80.546,0.382,161.455,12.644,241.45c2.112,20.118,6.685,39.92,10.38,59.839c4.065,19.862,7.09,39.911,12.574,59.533
					l14.914,59.146c2.231,9.915,5.672,19.567,8.671,29.315l9.241,29.192l9.244,29.194l4.675,14.583l5.446,14.38l21.792,57.524
					c3.718,9.553,7.079,19.248,11.089,28.689l11.985,28.338l23.966,56.679l24.706,56.439c8.302,18.79,16.395,37.652,25.014,56.336
					c16.936,37.471,34.142,74.849,51.824,112.054c17.407,37.307,35.504,74.355,53.376,111.485l54.954,110.857
					c36.718,73.843,73.569,147.607,107.526,222.249c8.791,18.575,16.492,37.458,24.573,56.247
					c4.173,9.361,7.598,18.916,11.283,28.406c3.566,9.521,7.442,18.974,10.76,28.555c6.161,19.264,13.162,38.389,17.742,57.982
					l3.874,14.622c0.606,2.443,1.382,4.864,1.85,7.327l1.351,7.396l5.417,29.624l0.022,0.118c0.228,1.248,1.588,2.1,3.037,1.903
					c1.393-0.189,2.362-1.289,2.23-2.483c-4.57-40.199-14.14-79.843-26.533-118.741c-3.077-9.728-6.706-19.304-10.034-28.969
					c-3.442-9.631-6.638-19.343-10.564-28.825c-7.595-19.04-14.826-38.222-23.124-57.027
					c-32.236-75.586-68.434-149.71-103.818-224.034c-35.51-74.29-71.061-148.503-105.652-223.035
					c-34.689-74.501-68.007-149.444-100.627-224.611l-23.872-56.563l-11.935-28.282c-3.994-9.424-7.411-18.96-11.147-28.433
					l-21.966-56.937l-5.493-14.234l-4.72-14.435l-9.34-28.894c-26.064-76.791-44.539-155.354-58.302-234.417
					c-14.132-79.073-20.08-159.226-18.496-239.257c-0.193-10.019,0.853-19.993,1.174-29.999l1.462-30.013l2.917-29.932l1.468-14.974
					c0.604-4.979,1.416-9.938,2.114-14.91c1.534-9.927,2.715-19.91,4.538-29.802l5.754-29.655
					c4.56-19.638,8.943-39.396,15.812-58.572c0.063-0.148-0.025-0.309-0.196-0.363C659.322,807.224,659.132,807.309,659.066,807.451
					z"/>
			</g>
		</g>
		<g>
			
				<linearGradient id="SVGID_00000083048821651868061250000015544376993446919604_" gradientUnits="userSpaceOnUse" x1="-835.7396" y1="2747.8069" x2="-290.0671" y2="1110.7848" gradientTransform="matrix(-1 0 0 1 1155.7772 0)">
				<stop  offset="0" style="stop-color:#2B3582"/>
				<stop  offset="1" style="stop-color:#150E42"/>
			</linearGradient>
			<path style="fill:url(#SVGID_00000083048821651868061250000015544376993446919604_);" d="M582.546,2807.193
				c0,23.476,19.227,42.684,42.726,42.684h2310.426c23.499,0,42.726-19.208,42.726-42.684l19.225-1327.738
				c0-23.476-27.659-69.308-78.35-65.864l-2258.003-58.426c-29.485-0.763-57.993,10.585-78.872,31.397
				c-20.879,20.811-32.304,49.265-31.607,78.723L582.546,2807.193z"/>
			
				<linearGradient id="SVGID_00000021114775782877621320000000157631218154898616_" gradientUnits="userSpaceOnUse" x1="2090.2729" y1="1620.9911" x2="619.105" y2="3813.3188">
				<stop  offset="0" style="stop-color:#53D8FF"/>
				<stop  offset="1" style="stop-color:#3840F7"/>
			</linearGradient>
			<path style="fill:url(#SVGID_00000021114775782877621320000000157631218154898616_);" d="M624.727,2766.243
				c0,22.231,18.19,40.421,40.421,40.421H2879.98c22.232,0,40.421-18.19,40.421-40.421l18.142-1205.333
				c-2.137-72.534-65.729-98.603-104.277-97.064l-2164.091-58.059c-20.714-0.556-40.742,7.425-55.413,22.059
				c-14.671,14.633-22.74,34.66-22.22,55.375L624.727,2766.243z"/>
			<g>
				<path style="fill:#FFFFFF;" d="M2896.469,2193.625c-0.03,0-0.059,0-0.089,0c-3.273-0.047-5.886-2.738-5.836-6.013l1.434-97.75
					c0.047-3.24,2.69-5.836,5.919-5.836c0.03,0,0.059,0,0.089,0c3.273,0.047,5.886,2.738,5.836,6.013l-1.434,97.75
					C2902.34,2191.029,2899.697,2193.625,2896.469,2193.625z"/>
				<path style="fill:#FFFFFF;" d="M2899.987,1954.086c-0.03,0-0.059,0-0.089,0c-3.273-0.047-5.886-2.744-5.836-6.013l5.496-374.387
					c-0.104-22.238-6.853-39.994-20.065-52.654c-24.662-23.627-63.817-22.421-65.467-22.344l-691.691-18.548
					c-3.27-0.083-5.851-2.809-5.762-6.078c0.086-3.27,2.599-6.055,6.081-5.759l691.28,18.548c4.302-0.254,45.99-0.976,73.753,25.626
					c15.619,14.965,23.598,35.583,23.716,61.268l-5.499,374.505C2905.858,1951.49,2903.215,1954.086,2899.987,1954.086z"/>
			</g>
			
				<linearGradient id="SVGID_00000065054239876724503210000014787852003983276431_" gradientUnits="userSpaceOnUse" x1="382.7199" y1="2663.5198" x2="-1952.1687" y2="3231.4653" gradientTransform="matrix(-1 0 0 1 1155.7772 0)">
				<stop  offset="0" style="stop-color:#2B3582"/>
				<stop  offset="1" style="stop-color:#150E42"/>
			</linearGradient>
			<path style="fill:url(#SVGID_00000065054239876724503210000014787852003983276431_);" d="M466.69,2967.548h2602.286
				c3.11,0,5.654-2.544,5.654-5.654V2849.09c0-3.109-2.544-5.654-5.654-5.654H466.69c-3.11,0-5.654,2.544-5.654,5.654v112.804
				C461.036,2965.004,463.58,2967.548,466.69,2967.548z"/>
			<g>
				<path style="opacity:0.37;fill:#FFFFFF;" d="M2202.099,2004.247H701.664c-6.863,0-12.426-5.563-12.426-12.426v-197.922
					c0-6.863,5.564-12.426,12.426-12.426h1500.435c6.863,0,12.426,5.563,12.426,12.426v197.922
					C2214.525,1998.684,2208.961,2004.247,2202.099,2004.247z"/>
				<path style="opacity:0.37;fill:#FFFFFF;" d="M2205.502,2257.851H705.067c-6.863,0-12.426-5.563-12.426-12.426v-197.922
					c0-6.863,5.563-12.426,12.426-12.426h1500.435c6.863,0,12.426,5.563,12.426,12.426v197.922
					C2217.928,2252.288,2212.365,2257.851,2205.502,2257.851z"/>
				<path style="opacity:0.37;fill:#FFFFFF;" d="M2212.306,2508.608H711.871c-6.863,0-12.426-5.563-12.426-12.427V2298.26
					c0-6.863,5.564-12.426,12.426-12.426h1500.435c6.863,0,12.426,5.563,12.426,12.426v197.921
					C2224.733,2503.044,2219.169,2508.608,2212.306,2508.608z"/>
				<path style="opacity:0.37;fill:#FFFFFF;" d="M2215.705,2762.217H715.271c-6.863,0-12.426-5.563-12.426-12.426V2551.87
					c0-6.863,5.564-12.427,12.426-12.427h1500.435c6.863,0,12.426,5.563,12.426,12.427v197.921
					C2228.132,2756.654,2222.568,2762.217,2215.705,2762.217z"/>
				<path style="opacity:0.26;fill:#FFFFFF;" d="M2824.465,2737.332h-536.423c-7.456,0-13.501-6.044-13.501-13.501v-350.364
					c0-7.457,6.045-13.501,13.501-13.501h536.423c7.456,0,13.501,6.044,13.501,13.501v350.364
					C2837.966,2731.288,2831.921,2737.332,2824.465,2737.332z"/>
				<path style="opacity:0.26;fill:#FFFFFF;" d="M2824.465,2324.583h-536.423c-7.456,0-13.501-6.045-13.501-13.501v-346.817
					c0-7.456,6.045-13.501,13.501-13.501h536.423c7.456,0,13.501,6.045,13.501,13.501v346.817
					C2837.966,2318.538,2831.921,2324.583,2824.465,2324.583z"/>
				<path style="opacity:0.26;fill:#FFFFFF;" d="M2827.577,1914.986h-536.423c-7.456,0-13.501-6.045-13.501-13.501v-343.711
					c0-7.456,6.044-13.501,13.501-13.501h536.423c7.456,0,13.501,6.045,13.501,13.501v343.711
					C2841.078,1908.941,2835.034,1914.986,2827.577,1914.986z"/>
				<path style="opacity:0.37;fill:#FFFFFF;" d="M2175.547,1724.777H751.687c-23.69,0-42.895-19.324-42.895-43.162V1547.75
					c0-24.157,19.702-43.611,43.705-43.155l1423.86,27.072c23.37,0.444,42.084,19.635,42.084,43.155v106.792
					C2218.442,1705.452,2199.238,1724.777,2175.547,1724.777z"/>
				<g>
					<g>
						<path style="fill:#FFFFFF;" d="M2042.977,1698.751c37.348-10.825,58.687-50.433,47.663-88.467
							c-11.024-38.034-50.237-60.091-87.585-49.265c-37.347,10.825-58.687,50.433-47.663,88.467
							C1966.416,1687.52,2005.629,1709.577,2042.977,1698.751z M2040.045,1688.635c-31.861,9.235-65.314-9.582-74.719-42.029
							c-9.405-32.447,8.8-66.237,40.662-75.472c31.862-9.235,65.314,9.582,74.719,42.029
							C2090.111,1645.611,2071.906,1679.4,2040.045,1688.635z"/>
					</g>
					<g>
						<path style="fill:#FFFFFF;" d="M2078.208,1664.195l85.615,53.705c3.591,2.252,4.582,7.531,2.151,11.457l-0.399,0.645
							c-2.151,3.473-6.348,4.435-9.353,2.143l-81.413-62.095L2078.208,1664.195z"/>
					</g>
				</g>
				<path style="opacity:0.47;fill:#FFFFFF;" d="M1840.706,1668.742H827.729c-14.362,0-25.884-12.538-25.462-27.707l1.421-51.052
					c0.416-14.928,12.254-26.644,26.379-26.107l1012.121,38.512c14.174,0.539,25.202,13.208,24.527,28.178l-0.565,12.54
					C1865.503,1657.457,1854.303,1668.742,1840.706,1668.742z"/>
			</g>
		</g>
		<g>
			<g>
				<g>
					<g>
						
							<linearGradient id="SVGID_00000114759927152303282330000017451693566625148033_" gradientUnits="userSpaceOnUse" x1="11052.9326" y1="3111.3689" x2="11203.0742" y2="3111.3689" gradientTransform="matrix(1 0 0 1 -10170.96 0)">
							<stop  offset="0" style="stop-color:#53D8FF"/>
							<stop  offset="1" style="stop-color:#3840F7"/>
						</linearGradient>
						<path style="fill:url(#SVGID_00000114759927152303282330000017451693566625148033_);" d="M1027.875,3104.107
							c-25.721,2.223-70.362,5.835-105.554,7.383c-21.155,0.931-33.334-1.141-40.348-3.949c0.011,0.791,0.034,1.539,0.065,2.232
							c0.167,3.703,3.176,6.666,6.916,6.874c66.497,3.712,119.383,1.285,138.211,0.139c3.893-0.237,6.213-4.468,4.222-7.787
							C1030.391,3107.341,1029.184,3105.715,1027.875,3104.107z"/>
						
							<linearGradient id="SVGID_00000016041140272981878910000005057807759772152980_" gradientUnits="userSpaceOnUse" x1="11052.9238" y1="3081.9429" x2="11198.835" y2="3081.9429" gradientTransform="matrix(1 0 0 1 -10170.96 0)">
							<stop  offset="0" style="stop-color:#2B3582"/>
							<stop  offset="1" style="stop-color:#150E42"/>
						</linearGradient>
						<path style="fill:url(#SVGID_00000016041140272981878910000005057807759772152980_);" d="M922.321,3111.49
							c35.192-1.548,79.833-5.16,105.554-7.383c-25.288-31.026-105.554-51.938-105.554-51.938h-22.669
							c-15.592,22.475-17.85,43.874-17.679,55.372C888.987,3110.35,901.166,3112.422,922.321,3111.49z"/>
						
							<linearGradient id="SVGID_00000140727524089672637710000006926562987533380797_" gradientUnits="userSpaceOnUse" x1="11066.7939" y1="3040.8604" x2="11109.0859" y2="3040.8604" gradientTransform="matrix(1 0 0 1 -10170.96 0)">
							<stop  offset="0" style="stop-color:#F9B776"/>
							<stop  offset="1" style="stop-color:#F47960"/>
						</linearGradient>
						<path style="fill:url(#SVGID_00000140727524089672637710000006926562987533380797_);" d="M895.834,3015.16l2.122,41.98
							c0.23,4.546,3.632,8.366,8.186,9.017c4.529,0.648,10.596,0.73,17.029-1.411c3.958-1.317,6.896-4.652,7.626-8.72l7.331-40.866
							H895.834z"/>
					</g>
					<g>
						<g>
							
								<linearGradient id="SVGID_00000087377727460699389570000001011261300701260704_" gradientUnits="userSpaceOnUse" x1="10753.6113" y1="3108.1309" x2="10811.1484" y2="3108.1309" gradientTransform="matrix(1 0 0 1 -10170.96 0)">
								<stop  offset="0" style="stop-color:#53D8FF"/>
								<stop  offset="1" style="stop-color:#3840F7"/>
							</linearGradient>
							<path style="fill:url(#SVGID_00000087377727460699389570000001011261300701260704_);" d="M601.388,3111.176
								c-11.154-1.556-16.201-7.351-18.317-13.545c-0.014,0.056-0.028,0.111-0.042,0.167c-1.641,6.534,2.163,13.307,9.769,16.528
								c9.193,3.893,19.244,4.556,27.047,4.235c8.372-0.345,16.057-3.809,20.28-9.354l0.063-0.083
								C631.785,3113.281,619.989,3113.77,601.388,3111.176z"/>
							
								<linearGradient id="SVGID_00000101064548564963097740000008211873214931152306_" gradientUnits="userSpaceOnUse" x1="10754.0303" y1="3063.8293" x2="10838.4834" y2="3063.8293" gradientTransform="matrix(1 0 0 1 -10170.96 0)">
								<stop  offset="0" style="stop-color:#2B3582"/>
								<stop  offset="1" style="stop-color:#150E42"/>
							</linearGradient>
							<path style="fill:url(#SVGID_00000101064548564963097740000008211873214931152306_);" d="M653.978,3014.892h-18.695
								c-28.476-0.583-46.359,59.48-52.212,82.74c2.116,6.194,7.163,11.989,18.317,13.545c18.602,2.594,30.398,2.105,38.801-2.053
								c15.385-20.245,23.012-49.896,26.678-67.2C671.037,3022.242,653.978,3014.892,653.978,3014.892z"/>
						</g>
						
							<linearGradient id="SVGID_00000044138325537249536050000005445052146320538542_" gradientUnits="userSpaceOnUse" x1="10797.9277" y1="3005.6045" x2="10848.4707" y2="3005.6045" gradientTransform="matrix(1 0 0 1 -10170.96 0)">
							<stop  offset="0" style="stop-color:#F9B776"/>
							<stop  offset="1" style="stop-color:#F47960"/>
						</linearGradient>
						<path style="fill:url(#SVGID_00000044138325537249536050000005445052146320538542_);" d="M637.685,2975.927l-10.381,41.289
							c-1.273,5.063,1.15,10.299,5.831,12.701c5.807,2.98,13.984,6.112,21.498,5.206c3.534-0.426,6.47-2.916,7.637-6.243
							l15.241-43.44L637.685,2975.927z"/>
					</g>
					
						<linearGradient id="SVGID_00000100340484363160607790000016327741666545329311_" gradientUnits="userSpaceOnUse" x1="10867.2061" y1="2942.5693" x2="11531.1689" y2="2191.3699" gradientTransform="matrix(1 0 0 1 -10170.96 0)">
						<stop  offset="0" style="stop-color:#CB236D"/>
						<stop  offset="1" style="stop-color:#4C246D"/>
					</linearGradient>
					<path style="fill:url(#SVGID_00000100340484363160607790000016327741666545329311_);" d="M625.303,2987.862
						c12.916,11.457,54.926,12.969,54.926,12.969c151.328-363.201,213.231-414.8,213.231-414.8
						c-21.851,137.089-3.523,440.587-3.523,440.587c24.972,11.019,57.167,0,57.167,0c2.028-224.433,36.524-420.16,77.276-574.466
						c-102.279-2.299-156.67-37.299-174.43-51.346C764.693,2538.257,625.303,2987.862,625.303,2987.862z"/>
					
						<linearGradient id="SVGID_00000093861937813144363850000015102850010879329418_" gradientUnits="userSpaceOnUse" x1="1077.9419" y1="2035.5658" x2="764.0531" y2="2496.2742">
						<stop  offset="0" style="stop-color:#FDF53F"/>
						<stop  offset="0.6645" style="stop-color:#E57A58"/>
						<stop  offset="1" style="stop-color:#D93C65"/>
					</linearGradient>
					<path style="fill:url(#SVGID_00000093861937813144363850000015102850010879329418_);" d="M875.924,1983.123
						c-19.359,96.564-12.421,269.396-7.864,348.229c1.281,22.158-14.187,52.875-26.689,73.831c-1.961,3.287-0.75,7.495,2.654,9.245
						c20.932,10.758,91.843,44.099,174.028,48.247c5.48,0.276,10.373-3.456,11.792-8.756
						c60.963-227.628,131.771-373.083,131.771-373.083C1083.442,1955.998,875.924,1983.123,875.924,1983.123z"/>
					
						<linearGradient id="SVGID_00000144308384656145216710000004834593651728254886_" gradientUnits="userSpaceOnUse" x1="10968.251" y1="2818.4275" x2="10992.4697" y2="2769.9897" gradientTransform="matrix(1 0 0 1 -10170.96 0)">
						<stop  offset="0" style="stop-color:#CB236D"/>
						<stop  offset="1" style="stop-color:#4C246D"/>
					</linearGradient>
					<path style="fill:url(#SVGID_00000144308384656145216710000004834593651728254886_);" d="M903.786,2577.433
						c-0.859,0-1.729-0.232-2.518-0.709c-2.283-1.396-3.008-4.374-1.619-6.655c0.814-1.339,20.39-32.978,60.001-52.09
						c2.406-1.155,5.305-0.156,6.472,2.257c1.162,2.409,0.151,5.31-2.26,6.47c-36.929,17.819-55.748,48.1-55.936,48.403
						C907.014,2576.604,905.419,2577.433,903.786,2577.433z"/>
					<g>
						
							<linearGradient id="SVGID_00000105417362511594386940000005245039584035579824_" gradientUnits="userSpaceOnUse" x1="11029.4883" y1="2268.8735" x2="10849.5635" y2="2428.2014" gradientTransform="matrix(1 0 0 1 -10170.96 0)">
							<stop  offset="0" style="stop-color:#F9B776"/>
							<stop  offset="1" style="stop-color:#F47960"/>
						</linearGradient>
						<path style="fill:url(#SVGID_00000105417362511594386940000005245039584035579824_);" d="M754.494,2260.261
							c6.219,44.984,24.591,94.051,61.344,146.171l13.971-11.39c0,0-16.128-65.436-6.96-139.7
							C800.179,2250.919,773.402,2255.479,754.494,2260.261z"/>
						
							<linearGradient id="SVGID_00000065776999778471168060000012108187225966197163_" gradientUnits="userSpaceOnUse" x1="954.7878" y1="1951.6587" x2="640.8992" y2="2412.3667">
							<stop  offset="0" style="stop-color:#FDF53F"/>
							<stop  offset="0.6645" style="stop-color:#E57A58"/>
							<stop  offset="1" style="stop-color:#D93C65"/>
						</linearGradient>
						<path style="fill:url(#SVGID_00000065776999778471168060000012108187225966197163_);" d="M897.548,2102.271l-21.623-119.147
							c0,0-144.473,110.433-121.43,277.138c18.908-4.782,45.684-9.342,68.356-4.919
							C829.455,2201.846,849.184,2143.77,897.548,2102.271z"/>
					</g>
					<g>
						
							<linearGradient id="SVGID_00000101786913660645843030000016514154761120863142_" gradientUnits="userSpaceOnUse" x1="1222.7388" y1="2134.2188" x2="908.8501" y2="2594.9268">
							<stop  offset="0" style="stop-color:#FDF53F"/>
							<stop  offset="0.6645" style="stop-color:#E57A58"/>
							<stop  offset="1" style="stop-color:#D93C65"/>
						</linearGradient>
						<path style="fill:url(#SVGID_00000101786913660645843030000016514154761120863142_);" d="M1161.617,2080.837l-55.766,120.101
							c9.017,72.509,47.968,103.86,89.967,115.885c2.619-33.046,10.975-59.744,18.728-78.211
							C1160.884,2183.206,1161.617,2080.837,1161.617,2080.837z"/>
						
							<linearGradient id="SVGID_00000098203067284136505610000003600105412447963325_" gradientUnits="userSpaceOnUse" x1="11366.7783" y1="2283.9441" x2="11508.4766" y2="2283.9441" gradientTransform="matrix(1 0 0 1 -10170.96 0)">
							<stop  offset="0" style="stop-color:#F9B776"/>
							<stop  offset="1" style="stop-color:#F47960"/>
						</linearGradient>
						<path style="fill:url(#SVGID_00000098203067284136505610000003600105412447963325_);" d="M1214.547,2238.612
							c-7.753,18.467-16.109,45.166-18.728,78.211c112.053,43.475,141.698-40.839,141.698-40.839l-20.709-3.654
							C1270.043,2277.258,1237.375,2262.181,1214.547,2238.612z"/>
					</g>
					
						<linearGradient id="SVGID_00000052078127540023062590000001789514814563463063_" gradientUnits="userSpaceOnUse" x1="11229.0439" y1="1905.2759" x2="11227.4971" y2="2169.886" gradientTransform="matrix(1 0 0 1 -10170.96 0)">
						<stop  offset="0" style="stop-color:#F9B776"/>
						<stop  offset="1" style="stop-color:#F47960"/>
					</linearGradient>
					<path style="fill:url(#SVGID_00000052078127540023062590000001789514814563463063_);" d="M1110.239,1932.563l-26.923,98.969
						c-3.024,11.118-15.05,17.089-25.749,12.812c-11.545-4.616-26.194-10.916-38.803-17.724
						c-13.461-7.267-17.672-24.582-9.151-37.286l55.973-83.459L1110.239,1932.563z"/>
				</g>
				
					<linearGradient id="SVGID_00000119104709405139026990000001568082262610808759_" gradientUnits="userSpaceOnUse" x1="10835.1953" y1="2387.7441" x2="11577.2061" y2="2387.7441" gradientTransform="matrix(1 0 0 1 -10170.96 0)">
					<stop  offset="0" style="stop-color:#2B3582"/>
					<stop  offset="1" style="stop-color:#150E42"/>
				</linearGradient>
				<path style="fill:url(#SVGID_00000119104709405139026990000001568082262610808759_);" d="M1388.873,2209.757L699.01,2460.84
					c-28.933,10.53-42.764,43.476-30.017,71.503l2.093,4.603c11.278,24.798,40.587,35.675,65.312,24.237l669.849-309.876
					L1388.873,2209.757z"/>
				
					<linearGradient id="SVGID_00000044884247581831318890000000553305603657198004_" gradientUnits="userSpaceOnUse" x1="11536.373" y1="2058.7231" x2="12217.4717" y2="2058.7231" gradientTransform="matrix(1 0 0 1 -10170.96 0)">
					<stop  offset="0" style="stop-color:#B37CFF"/>
					<stop  offset="1" style="stop-color:#F895E7"/>
				</linearGradient>
				
					<ellipse style="opacity:0.34;fill:url(#SVGID_00000044884247581831318890000000553305603657198004_);" cx="1705.962" cy="2058.723" rx="340.549" ry="334.405"/>
				
					<linearGradient id="SVGID_00000171708768855438862080000013813745437781446828_" gradientUnits="userSpaceOnUse" x1="11497.9824" y1="2058.7231" x2="12255.8613" y2="2058.7231" gradientTransform="matrix(1 0 0 1 -10170.96 0)">
					<stop  offset="0" style="stop-color:#2B3582"/>
					<stop  offset="1" style="stop-color:#150E42"/>
				</linearGradient>
				<path style="fill:url(#SVGID_00000171708768855438862080000013813745437781446828_);" d="M1705.962,1686.62
					c-209.282,0-378.939,166.597-378.939,372.103c0,205.508,169.657,372.104,378.939,372.104
					c209.283,0,378.94-166.596,378.94-372.104C2084.902,1853.217,1915.245,1686.62,1705.962,1686.62z M1705.962,2376.165
					c-178.539,0-323.275-142.123-323.275-317.443c0-175.318,144.736-317.443,323.275-317.443
					c178.54,0,323.275,142.125,323.275,317.443C2029.237,2234.042,1884.502,2376.165,1705.962,2376.165z"/>
				<path style="fill:#FFFFFF;" d="M1352.831,2102.658c-1.124-8.782-1.92-17.773-2.363-26.719c-0.084-1.672,1.204-3.093,2.876-3.176
					c1.571-0.108,3.093,1.204,3.176,2.876c0.436,8.792,1.218,17.623,2.321,26.252c0.213,1.658-0.96,3.176-2.621,3.389
					c-0.129,0.018-0.258,0.025-0.387,0.025C1354.332,2105.304,1353.026,2104.187,1352.831,2102.658z M1357.899,2001.205
					c-1.648-0.293-2.744-1.867-2.447-3.515c4.293-23.955,11.183-47.53,20.471-70.067c0.004-0.004,0.007-0.01,0.007-0.01
					c54.706-132.689,184.25-218.439,330.033-218.439c67.98,0,134.065,18.883,191.113,54.612c1.417,0.89,1.847,2.757,0.96,4.178
					c-0.89,1.417-2.754,1.843-4.178,0.96c-56.081-35.124-121.052-53.69-187.894-53.69c-143.325,0-270.674,84.273-324.434,214.701
					c-0.004,0.003-0.007,0.014-0.007,0.014c-9.124,22.133-15.889,45.285-20.109,68.811c-0.262,1.466-1.539,2.496-2.977,2.496
					C1358.259,2001.254,1358.08,2001.24,1357.899,2001.205z"/>
				<g>
					
						<linearGradient id="SVGID_00000147213869773820944440000015433152141980259505_" gradientUnits="userSpaceOnUse" x1="10859.7568" y1="4944.4058" x2="10729.5039" y2="5116.7202" gradientTransform="matrix(0.9897 -0.1428 0.1428 0.9897 -10310.0146 -1480.9402)">
						<stop  offset="0" style="stop-color:#F9B776"/>
						<stop  offset="1" style="stop-color:#F47960"/>
					</linearGradient>
					<path style="fill:url(#SVGID_00000147213869773820944440000015433152141980259505_);" d="M1169.138,1857.369
						c0.245,1.699-22.455,112.94-22.455,112.94l-63.241-14.312l5.851-108.629
						C1089.293,1847.368,1165.033,1828.916,1169.138,1857.369z"/>
					
						<linearGradient id="SVGID_00000092414788667639902630000007171966178061263005_" gradientUnits="userSpaceOnUse" x1="10760.2803" y1="4985.9722" x2="10915.8701" y2="4985.9722" gradientTransform="matrix(0.9897 -0.1428 0.1428 0.9897 -10310.0146 -1480.9402)">
						<stop  offset="0" style="stop-color:#2B3582"/>
						<stop  offset="1" style="stop-color:#150E42"/>
					</linearGradient>
					<path style="fill:url(#SVGID_00000092414788667639902630000007171966178061263005_);" d="M1103.517,1871.575l-7.558,56.943
						c-0.097,0.73-0.096,1.451,0.008,2.181c0.638,4.464,3.958,19.659,19.297,15.314c13.919-3.943,26.681-7.334,35.496-4.638
						c3.958,1.21,6.346,5.219,5.517,9.275c-2.065,10.107-7.14,32.795-14.556,51.833c-1.505,3.863-5.736,5.892-9.716,4.732
						c-11.994-3.497-37.084-11.579-55.745-22.81c-2.529-1.522-4.035-4.272-3.91-7.22c0.607-14.376,2.287-58.074,0.873-70.323
						c-1.328-11.497-15.439-18.385-21.569-20.855c-2.01-0.81-3.586-2.393-4.388-4.406c-2.839-7.114-6.753-23.576,13.993-30.323
						c4.342-1.412,6.63-6.093,5.087-10.39c-3.073-8.555-4.369-21.609,11.681-28.802c16.313-7.311,28.496,1.386,35.074,8.453
						c2.66,2.858,6.928,3.293,10.228,1.208c1.879-1.187,4.299-1.576,7.224,0.245c3.941,2.455,9.159,0.782,11.192-3.392
						c3.907-8.018,11.868-16.607,27.839-13.873c28.339,4.853,31.549,36.256,24.073,54.659c-7.476,18.402-37.902,11.394-53.165,2.117
						c-11.605-7.054-26.659,0.339-33.208,4.288C1105.209,1867.043,1103.836,1869.173,1103.517,1871.575z"/>
					
						<linearGradient id="SVGID_00000134233871745070214220000006311709076763469229_" gradientUnits="userSpaceOnUse" x1="10668.9863" y1="5080.8657" x2="10773.4609" y2="4973.6782" gradientTransform="matrix(0.9897 -0.1428 0.1428 0.9897 -10310.0146 -1480.9402)">
						<stop  offset="0" style="stop-color:#F9B776"/>
						<stop  offset="1" style="stop-color:#F47960"/>
					</linearGradient>
					<path style="fill:url(#SVGID_00000134233871745070214220000006311709076763469229_);" d="M1070.677,1927.623
						c0,0,11.651-32.624-0.319-40.614c-11.97-7.99-29.697-3.841-25.794,19.792
						C1049.419,1936.198,1070.677,1927.623,1070.677,1927.623z"/>
				</g>
				
					<linearGradient id="SVGID_00000043451783453035425640000001466888264140980891_" gradientUnits="userSpaceOnUse" x1="11100.541" y1="2349.1121" x2="10920.6172" y2="2508.4387" gradientTransform="matrix(1 0 0 1 -10170.96 0)">
					<stop  offset="0" style="stop-color:#F9B776"/>
					<stop  offset="1" style="stop-color:#F47960"/>
				</linearGradient>
				<path style="fill:url(#SVGID_00000043451783453035425640000001466888264140980891_);" d="M824.049,2393.059l65.216-5.315
					l28.244,26.036c0,0-6.682,9.236-27.572,3.927c-20.89-5.309-49.506-6.612-49.506-6.612s-28.839,13.001-29.19-11.325
					L824.049,2393.059z"/>
				
					<linearGradient id="SVGID_00000026867857758599747690000015283470332422015362_" gradientUnits="userSpaceOnUse" x1="11493.4219" y1="2267.3027" x2="11544.165" y2="2267.3027" gradientTransform="matrix(1 0 0 1 -10170.96 0)">
					<stop  offset="0" style="stop-color:#F9B776"/>
					<stop  offset="1" style="stop-color:#F47960"/>
				</linearGradient>
				<path style="fill:url(#SVGID_00000026867857758599747690000015283470332422015362_);" d="M1329.21,2291.411
					c5.641,4.407,24.964-4.793,36.788-11.153c5.762-3.1,8.553-9.838,6.575-16.075c-2.846-8.973-7.587-20.557-13.429-22.017
					C1349.452,2239.743,1305.968,2273.253,1329.21,2291.411z"/>
				<path style="fill:#FFFFFF;" d="M712.619,2552.015c1.257,0,2.429-0.785,2.862-2.038c0.548-1.585-0.29-3.309-1.871-3.854
					c-19.264-6.66-29.348-17.4-29.976-31.927c-0.639-14.74,8.691-28.447,23.215-34.109l82.832-32.297
					c1.56-0.607,2.332-2.366,1.724-3.923c-0.604-1.56-2.367-2.328-3.923-1.724l-82.832,32.297
					c-16.943,6.607-27.819,22.688-27.068,40.018c0.513,11.864,6.834,27.986,34.046,37.39
					C711.956,2551.963,712.291,2552.015,712.619,2552.015z"/>
				<path style="fill:#FFFFFF;" d="M814.104,2438.042c0.367,0,0.74-0.066,1.099-0.206l10.737-4.185
					c1.56-0.607,2.332-2.366,1.724-3.923c-0.607-1.56-2.37-2.328-3.923-1.724l-10.737,4.185c-1.56,0.607-2.332,2.366-1.724,3.923
					C811.748,2437.309,812.893,2438.042,814.104,2438.042z"/>
			</g>
		</g>
		<g>
			<g>
				<g>
					
						<linearGradient id="SVGID_00000067224351979136020510000016157830629706187424_" gradientUnits="userSpaceOnUse" x1="2104.0332" y1="2553.1262" x2="3163.7236" y2="2553.1262" gradientTransform="matrix(0.9998 -0.0219 0.0219 0.9998 28.2232 -27.654)">
						<stop  offset="0" style="stop-color:#2B3582"/>
						<stop  offset="1" style="stop-color:#150E42"/>
					</linearGradient>
					<path style="fill:url(#SVGID_00000067224351979136020510000016157830629706187424_);" d="M2264.251,1688.843
						c-41.087,3.573-72.588,37.983-72.705,79.225c-0.715,252.21-1.895,1122.15,14.543,1430.06
						c1.741,32.62,28.485,58.246,61.15,58.598c161.562,1.739,626.288,4.935,890.115-11.941
						c54.951-3.515,97.712-49.027,97.645-104.09c-0.321-264.703-4.55-1009.141-40.81-1349.415
						c-4.344-40.77-37.117-72.593-77.994-75.778C2959.988,1701.773,2492.066,1669.03,2264.251,1688.843z"/>
					
						<linearGradient id="SVGID_00000161596934260013116780000013051158549443849626_" gradientUnits="userSpaceOnUse" x1="2295.3057" y1="1891.9591" x2="4524.8979" y2="5019.6484" gradientTransform="matrix(1 -0.0042 0.0042 1 5.3179 -4.8586)">
						<stop  offset="0" style="stop-color:#FDF53F"/>
						<stop  offset="0.6645" style="stop-color:#E57A58"/>
						<stop  offset="1" style="stop-color:#D93C65"/>
					</linearGradient>
					<path style="fill:url(#SVGID_00000161596934260013116780000013051158549443849626_);" d="M2256.399,1834.163
						c-3.173,215.744-12.207,933.432,3.563,1198.318c2.305,38.717,32.379,69.283,69.514,70.577
						c152.895,5.329,544.969,15.639,768.38-8.943c40.229-4.427,70.975-39.296,72.047-81.519
						c5.589-220.166,20.684-888.61,5.357-1150.534c-2.445-41.784-34.368-75.125-74.384-77.822
						c-165.549-11.155-590.66-36.88-780.641-21.06C2284.573,1766.153,2256.948,1796.813,2256.399,1834.163z"/>
					<path style="fill:#1F5AA9;" d="M2625.812,1726.354c0.131,5.96,4.884,10.774,10.843,10.955
						c29.42,0.894,112.296,3.431,149.338,4.766c7.304,0.263,12.885-6.42,11.344-13.564c-0.127-0.225-1.076-9.385-10.43-10.035
						c-25.057-1.743-100.655-6.44-150.611-3.558C2626.037,1715.51,2625.479,1727.177,2625.812,1726.354z"/>
				</g>
			</g>
			<path style="opacity:0.47;fill:#FFFFFF;" d="M3065.497,2968.629h-689.15c-13.545,0-24.526-10.98-24.526-24.526v-980.962
				c0-13.545,10.981-24.526,24.526-24.526h689.15c13.545,0,24.526,10.981,24.526,24.526v980.962
				C3090.022,2957.648,3079.042,2968.629,3065.497,2968.629z"/>
			<g>
				<path style="fill:#FFFFFF;" d="M3023.423,2884.658h-605.455c-1.657,0-3-1.343-3-3v-40.498c0-1.657,1.343-3,3-3h605.455
					c1.657,0,3,1.343,3,3v40.498C3026.423,2883.315,3025.08,2884.658,3023.423,2884.658z"/>
				<path style="fill:#FFFFFF;" d="M3025.748,2804.455h-605.455c-1.657,0-3-1.343-3-3v-40.499c0-1.657,1.343-3,3-3h605.455
					c1.657,0,3,1.343,3,3v40.499C3028.748,2803.112,3027.405,2804.455,3025.748,2804.455z"/>
				<path style="fill:#FFFFFF;" d="M3021.098,2719.593h-605.455c-1.657,0-3-1.343-3-3v-40.499c0-1.657,1.343-3,3-3h605.455
					c1.657,0,3,1.343,3,3v40.499C3024.098,2718.25,3022.755,2719.593,3021.098,2719.593z"/>
				<path style="fill:#FFFFFF;" d="M3023.423,2632.411h-605.455c-1.657,0-3-1.343-3-3v-40.499c0-1.657,1.343-3,3-3h605.455
					c1.657,0,3,1.343,3,3v40.499C3026.423,2631.068,3025.08,2632.411,3023.423,2632.411z"/>
				<path style="fill:#FFFFFF;" d="M3025.748,2551.039h-605.455c-1.657,0-3-1.343-3-3v-40.499c0-1.657,1.343-3,3-3h605.455
					c1.657,0,3,1.343,3,3v40.499C3028.748,2549.695,3027.405,2551.039,3025.748,2551.039z"/>
			</g>
			<g>
				<path style="fill:#FFFFFF;" d="M2987.174,2401.777l-133.219-198.634c-1.342-2-3.597-3.192-6.004-3.173
					c-2.407,0.019-4.646,1.245-5.956,3.265l-74.823,115.367l-125.478-187.088c-1.342-2-3.597-3.192-6.004-3.173
					c-2.407,0.019-4.644,1.246-5.954,3.266l-177.897,274.338c-1.434,2.211-1.558,2.656-0.29,4.967
					c1.267,2.311,3.682,1.364,6.318,1.343l246.705-1.921l126.608-0.986l150.063-1.169c2.636-0.021,5.066,0.889,6.296-1.441
					S2988.641,2403.966,2987.174,2401.777z"/>
				
					<ellipse transform="matrix(0.913 -0.408 0.408 0.913 -599.8948 1347.3405)" style="fill:#FFFFFF;" cx="2858.419" cy="2079.913" rx="58.981" ry="58.98"/>
			</g>
		</g>
		<g>
			
				<linearGradient id="SVGID_00000129915155209713481890000004747205881228098217_" gradientUnits="userSpaceOnUse" x1="2528.3018" y1="897.7927" x2="2052.4941" y2="1317.6234">
				<stop  offset="0" style="stop-color:#A737D5"/>
				<stop  offset="1" style="stop-color:#EF497A"/>
			</linearGradient>
			
				<ellipse style="fill:url(#SVGID_00000129915155209713481890000004747205881228098217_);" cx="2272.621" cy="1123.393" rx="281.416" ry="192.496"/>
			
				<linearGradient id="SVGID_00000093151921630569146520000009299610068115701916_" gradientUnits="userSpaceOnUse" x1="2576.4634" y1="879.3433" x2="2059.9878" y2="1335.0575">
				<stop  offset="0" style="stop-color:#A737D5"/>
				<stop  offset="1" style="stop-color:#EF497A"/>
			</linearGradient>
			<polygon style="fill:url(#SVGID_00000093151921630569146520000009299610068115701916_);" points="2067.146,1244.787 
				2011.456,1340.979 2217.132,1280.356 			"/>
			<g>
				<path style="fill:#FFFFFF;" d="M2142.881,1071.871L2142.881,1071.871c9.319-26.57,32.598-45.643,60.104-45.974
					c36.322-0.437,66.147,31.904,66.147,72.241c0-40.337,30.171-73.399,67.876-73.852c29.282-0.352,54.571,19.023,64.827,46.784
					l0.001,0c39.305,100.193-132.704,188.102-132.704,188.102S2107.811,1166.061,2142.881,1071.871z"/>
			</g>
		</g>
	</g>
</g>
</svg>
